# xmcd
#
# Track frame offsets:
#	150
#	12280
#	24905
#	37891
#	50791
#	64242
#	76697
#	87806
#	100464
#	113480
#	124516
#	136091
#	147044
#	156613
#	167289
#	179771
#	191993
#
# Disc length: 2711 seconds
#
# Revision: 1
# Processed by: cddbd v1.5.2PL0 Copyright (c) Steve Scherf et al.
# Submitted via: audiograbber 1.83.01
#
DISCID=da0a9511
DTITLE=CLINT EASTWOOD - Clint Eastwood - The Singing Cowboy
DYEAR=2014
DGENRE=
TTITLE0=Bouquet Of Roses
TTITLE1=Along The Santa Fe Trail
TTITLE2=The Last Round Up
TTITLE3=Sierra Nevada
TTITLE4=Mexicali Rose
TTITLE5=Searching For Somewhere
TTITLE6=I'll Love You More
TTITLE7=Tumbling Tumbleweeds
TTITLE8=Twilight On The Trail
TTITLE9=San Antonio Rose
TTITLE10=Don't Fence Me In
TTITLE11=Are You Satisfied
TTITLE12=Unknown Girl Of My Dreams
TTITLE13=Foe All We Know
TTITLE14=Rowdy
TTITLE15=For You For Me For Evermore
TTITLE16=Cowboy Wedding Song
EXTD=
EXTT0=
EXTT1=
EXTT2=
EXTT3=
EXTT4=
EXTT5=
EXTT6=
EXTT7=
EXTT8=
EXTT9=
EXTT10=
EXTT11=
EXTT12=
EXTT13=
EXTT14=
EXTT15=
EXTT16=
PLAYORDER=
